/* XPM */
static char *_9053406b75f4a73c38c948c522c0026Sf3ZuBzCycCIjciA[] = {
/* columns rows colors chars-per-pixel */
"99 99 48 1 ",
"  c #2F6B05",
". c #2E6D0C",
"X c #306D04",
"o c #306F0A",
"O c #2F710E",
"+ c #337504",
"@ c #347903",
"# c #387C00",
"$ c #31740B",
"% c #32790B",
"& c #2D6D13",
"* c #266D1E",
"= c #296E1B",
"- c #2E7414",
"; c #2F7816",
": c #27711F",
"> c #2B741C",
", c #2E781C",
"< c #307611",
"1 c #317913",
"2 c #1F6B27",
"3 c #156B2E",
"4 c #1A6D2D",
"5 c #1D712E",
"6 c #0E6930",
"7 c #156D31",
"8 c #196F30",
"9 c #167233",
"0 c #1A7533",
"q c #177837",
"w c #1C7A36",
"e c #177739",
"r c #187738",
"t c #167A3A",
"y c #1D7E38",
"u c #236E24",
"i c #286E20",
"p c #206F29",
"a c #267224",
"s c #297422",
"d c #2A7924",
"f c #22732A",
"g c #287728",
"h c #25792D",
"j c #287829",
"k c #207731",
"l c #227C32",
"z c #1E8038",
/* pixels */
"95;+>0f%@a4u X++++++++@+++++X+@@@@@@@@@@@@z##@XXXo++++$++++++++++++++@+a463475=X+XX+X+++@>40>+@+,kr",
"95>$i0f1<f3u$+++@+++++$++++++++@@@@++@@@@z##@@$+++++++@+++++++$++@++++Ou333384a$X++X++++$aff<++$sk0",
"80faf80aa43i+++@@++$+++++++$XXX++@@@+%@@%@@@+++#+@+$%@++++++++++++++%>243637744i<+X++++-iua<$@oip88",
"00848848874*+@@@+++X +++++++O+XX+@++@@@@@@@X$+@%#%#@##$+Xo++#+++@+++-23334578800io+XX+$i4u<@+$i4343",
"4087084774:;@@@+++  o+++++++$+++++@@@@@@@@@@++@@%##%#@+oXX$++++@@@+@%:22aaaf59775*>++.>27u$+$*23770",
"088080075:%@@@@@XX X++@++@@@++@@++@@@@@@@XX@$+@@#%%#@$XXX+++$++@@++@@%%%%O@>577844i X=478a$+i434700",
"000400795-@@+@++XXXXX+++++@+@@@++@ @@@@@@@@@@@@@@%#@+XXXX++++++@++@@+@@@@@@Oi440775>>4770f;>2733800",
"005070975;@@+++++Xo+++@+++++@@@@+@@+@@@ @X@@@@@@@@@$+$XX+++++++++@@@@+++@++ .=p79755297980f24778880",
"000755595,@@@+ X $++++$+@  +@@@@@@++X@@@@@@@++@@@+++XX+++++@$+XX+@@@@@@@@X   O257550055057948888884",
"0000faa05;@+++X++++++++++++++++@@@+@@@@ $@@X+@++++ X$++$+$+++++++@+@+@@+X+ .:a::as>aa>,f09978888888",
"0595s%;55,@++ X+++@$++++@++$ ++@@@@@@@@ X@@X++++++ $+++++++++++@+++@@@@+  X>55:@@+@%@@@a59488888800",
"7099,@%59a->=>+@@+@@+@+++++@ +@@@+@+X@@@+@X@+@%+++++++@@+@@+++++++++@++XX+X-2g>@@@@@@%>g07088888000",
"5590s@%f94443u$@@%#@#zz  @++++++++@++++++@+++++@++O@#@%##%@%++++++++++++++++O%%@@@@@%a5904084800000",
"0995a->533334:%###%##@+@$ +@+++++++$++@$+++++%++++@@%##%%#@@oX$++++%@+++++++@@@@@@@@-f999007800w00w",
"999955559692>-%##%###+@   +++$++++++++++++++++++@+@##%###%oXXXX@+++@@+@+@++@+@@@@@+X-2997999880wwrw",
"w0044059495:@##%%#%@+X   ++++++@+++++@+++@+++++++@@%%#%%#+XXXX++++@+@@+@@@++@@@@+@+X.a9050550800w00",
"dd,dddg842a-#@@@z#+++X X @+++++++++++@@@@@@%@+@++@@@@z@@+XXX+X@++XX+++@++++@@@@@++X+<,ddds,s5000000",
"%%%%#%>50>@@@@+@+#++ ++++++++@++++++@%#%@%##z+++@@@@+@@++XX++++++XXo +@@@@@@+@@@+++@#%@#%@#;a940044",
"z#####<as-@@@@+@@+++O++++++++++++++++@@@#%#%##++@++@@@++++++@+O+XX   +++@@@+@@++X++%####z#O>f970888",
"######%<-@@+@++@@@@+@++@@+$++$+++++X+O+%%#@##@@@@@@@@++@++++++++$++ X ++@@@@@+++++@@@%#z##s44340040",
"-%%#%@@#@@+@@@@+@@@@@@+@@+  ++$++++$ +++#@#%z@@@+@@+@@@+@@@+@+XX+++    +@@+@%%+X+@@++@@@%s233380000",
"as1###@+@@@@+@+@@@@@@++++ +++++@++++++ +%@#@@+@@@@@@++@+@@@+@+o+++++++ X++@@a2-@@@@@@@@>ap370000090",
"64,%@@+@@++$@++++@+@@@++ $ ++++++++++X+ +@%@@@@@@@++@+@@@@@++.X+++++++ ++++;43>+@+++@@+s43330000000",
"632s<+@@@@@#++++@@@@++++++++@+++++++O+++++%@@++@+++++@@@@++++++++++++++>uu:2432>sa;%@@+-*p4700000ww",
"3733i$#@@@@++++++@@+@ @@@@+@@++@+++@@@+@@@ @@@@@@+++ @@@+@X@@@@ @+@+++$i4643334448f<@@@@+,f900800wy",
"uu22>$+@+@@++++@++@@$  @@@@@@+ @+++++@@@@ @ $@@@++++z+@@@XX@@@@@@@++++$*222443337fa%@@@+<i488800wyw",
"$$--$++@@@+++%+@@@++@@@@@@@+++ $++++++@@@@@+@@@X+++++@@+@++@@+@@@+++XX+..&.=5577a;+@@@@-u433800wwyy",
"$$+++++@+++++++++@++X@@@@@+++ + ++$X+@@+@@@+X@@@@++++@@+$+@@@@@@++ X X X  X&5390a%@$O%Oa363880wwyww",
"fs-++++++++++++++++@@@@@+++ + ++++++++@@@@+@@+@+++++$@+++@@@@++++XXX XXX  *244905ds:::243780rrlyyww",
"95,+@+++++++@+@++++@+@@@@+@ O@++++++++++@@@@+++++++++++@@+@@+@+  XX XX   =43334808934334380wkyyywyy",
"77p=$++@@++++$+++@+@@+@@@++ + @+++@+@+++@+@+@++%+++++++@@ +@@@@+XX XX  &*23675508q87774389rrytrkwyw",
"7334=+@+++++++@++++++++@@+@++@+@++O+++++++++++++++@+++++@@+@+@@+XXXXXX.*367488808808858789wrrttkwww",
"2233u>O++$+++++++@++++++@@+@+++++++++++O+++%++@@#++++++++++@++@++XXX+Xoippup500040959905afhhffkrwwy",
"O>2732*-+##%%+Xo+++@+@@+++++++++++++ ++++@@@@#%#%#+oX++++++@+@++XXXX+++o><$=f9704005099a-O>,<,hytyy",
"++*436u-@#%##$XX+++@+@+@@+XXX+++++$++  +@%%#@%#%%#+XX+++++@@@++oXoX++++@+++>f0700509505>+#@++Ogkywk",
"@+->27f,@##@++XX++++++@@++O++@@+@++++ ++#%##%##%@oXXX++@@@@++++++X++++@@@$=u478999795f><+++X>g5krwt",
"++++s8f;##@+oXXX+++++++@++++@++@@@@@++O+%z###z@@+XXXo+++@@@++++++++++++++=43338080085>+++@+1f970rrk",
",>++>0f1#@$+XXXX ++++++O++++++@@+@@@+++@#%###@@OXXXXX++@+@+@++++@++++++<>i3734uuapfas-+++$-aaassfkr",
"0f<+>0f1@++XX+++++$@+++@@+@OO+@@@@@+@+@@#@%###++oX+o+++++@++$++@++++@++=233375>$$O$OO++@+>0f>$+$akr",
"70a<s0f,$$X++$+++++++++++++X +++@@@@@@@@%@#%#++++++@@@+<<$+@+++++@+++$>p763495s&+XXX++++<aff<++Oi0r",
"994p8842u&X+@@#@#%+o+++++++++X ++@@+@@@+@@@@+++%@@@%@#%>p>++++++@@++$if87770955p&XX++++>ua:-++-u588",
"50k844372=+@@@%#@@+XX++++++++++++@@@@@@@++@++X@@@%###@158u<@++++%<@+-a8404505090a<+XX+$i32$++-i3648",
">>aaa=u33>+@#z##%+  X+++++++++++@+++@@+@@@++++@@%###%;u484u-+%>gjhd$$>is>a>a5970fu&+ -*47u++&u27388",
"++++++=44>@@%###+  X+++++@@@++@++++@@@@+@++++@@@@@#@;p33878u$$i0rlj1++$$+++-f00880p< u373i+$u33380r",
",,%++@$ii;+@#@@@XXXX+++-;-++@@@@+++@@@@;:<@@@@@@@@1;a3634775>sp8kkd<+@++++oip88007pa=f993p>>26788ww",
"lh;+@+$$<+@@+++++X++++<f5>+++@@@@@+++@%s5:@#@@+@@@>533337408pk00g1$+++++@<u437880005k0w005554780w00",
"tlg&+++++#@+++XXX+++$%s87a&--%@++@@@+@:47a%z<-@@@@-4422480800970>++++@++-i73788800870ry0099734800ww",
"w0kg-+++++#++++X+++@<ap4322uf,$#@@@@O:433422fs;+@@%->-;p08080808>++++++>23767800000r00004000000r000",
"88r8a-++++$O+ OO++++>k9787687f,@@@++>23333377f<+@@@+@@$f09095595>$@++#-i433250k00w0r000000rrwwrwrww",
"88872u-++;as***>++<ip888888804assssap8674775a;$#+@@@$;df59590995a++++>auiuuiiikwrw0w00000wyywwwykr9",
"888333i$$s474432<+i888000wr0808000084888898a<@+@@@@@<f0000445995>$++-a8i    X&f0www0000wlzzlyyyzk08",
"8843334=>p777634a>p9r80www00000700078008400f;<->>>;;a07759000990>++,sup=XX  Xip8r00w00wyzzzzzylww08",
"884733322440q9955k50ekkrr000000w000r00087085pkf05554577050955095>+<kk=XXXX .i238800wwwwyyzyzzzt8888",
"8800843777800500990w0rrk08800ww000w0r0008880r880555545p599509795u<gk0ioo&o.*23388rw00wyyyzyzllw8888",
"wwww0w00800daf0qr0rerrr9888000wrwrrr00077700e0a->>>>><>f04599505fhk00kfaiuip3339000w0wwywyyy0008888",
"lyyyzzywre0a+;fq0wrkrkk588800ww000w0088840490h;+@+++++$f999509590w0wwkr088333380rww0wwywywyw0088880",
"zzzyzzyyrrra+$>h0rkgsgs>if00000whdsddaa:af00fd%+#+++$;s5999057590er0wr0r99740wwywwww0wyyww0000rw0w0",
"zzwyyyyyyq0aoX+=kkf<+$o#<f0rrwqfs++%%O@@-jqh<+++++++;f0990997550000ww0005400wlyyylwwr0ywww000wltwwl",
"wyrwyyllllf,++X$gf;++++$,hwrw09wd<@@@@@#@shd$+@+++++-a5fafgf04700wwr00w09000wwzyzyyw0wwwww00wlyywww",
"wwwyyyl,$111++Xo-;$++#$sk0r00ww00a;+@@@@@<;$+++++++  -;-;O%:277500000w0r054000yzyyyyw000wwwwltyyw00",
"00wwyyl;@@@@+++++@+++$>fee0r0w0w99a;++@@+@@@+++++++XX@@@+@+;57000w000w00w090000lyywyw0080wwywwww008",
"wwwwqywld-@@@++++++@-df000wyww09905a;@@@@@@++++++XX+++@@@-df5900wwww00wwwww0w000wwyyw04000wlywwwwwk",
"ww0rwryyw,@+@@@@++++>5080wwyzw075999d-@+@@#+++++XXX+@@@+@s0700wwywww0wwwzwwwyw000wyyw00480wyyww0wwy",
"yywwhdfhj;++@@@+++->u4700wyww05500q95a>@+@+@@$>>-++@@@@;>f870wwyww00000wwwwwyy000wwlw04000wywwwwwwy",
"wytwj<o<$oX+@@+@++ip3340wyww004000wr08p<++@++<pf>+@+@#%a8849klyyr0080w0000lytlyrrrkyl0908kltkrklywy",
"ywyyk-XXXXXX+@@@$-p8788wyw0004000ww0r90d1%@@%a48a,-;<O>f9980yykr0888000080tltyyylrltt00880ktyryyyyw",
"wlyylka$X+XXXX#$df488rwwww005000r0ww0r00h;@$u488fffffaa480kttyrk80k00ww0w00wlyyytytkrk0000w0ryyykyl",
"wwwwrrf>X$o&oo@,f708wwyyw00800000w00w0wr0d<;0788079777978ryyyk09088w000w0w0wtlyklylr00w0800wlltryty",
"0wwwwr0fuagaafjf0000wwwwyw0000000wrw0r0rrfff0048079090900wkllrlk000rww00w0wrrklrrrw00rkr00wrrrktkyy",
"ww000w008850krkwr0w0r0wwwwyw00wrw000ww0w0ww00800800w0wr0rkrryyytk0wk0r0w0w00rrrkrkrrrkrr0w00rwrktyt",
"r00w0w000re0rrrr0w0000wywlwwr00w0w0w00w0rrr004000000ww0wrtktyylrrr0rw0r00000w0ltlyrylytk00w0w0wwrll",
"w0w0r0w0r000wr0ww0wrwwwyww0000w0w0r0ww00w0w0800000w00r00kryltrk808000w000890krtyyylyyylr990r0wrlyyy",
"00w0wr0w0w0w00000w00tltlw0000w0w0000000000005000w0wwrw00rkytkrw90000rtkr0800rtlzzzzzyll888r0kkrltly",
"w0r000000r00wr00900wrrkrw000000r0000888000049009080000w0krrlww00kwltyltlw088yyyyyzzzyr0840rkrrrrkrr",
"0wwwwwwrrerkk0088k00kr0w0r0w0w00048888880400040508000w0wwrrkkrw0tlltytyyww0klzzyzlyyyr88808trkkrrkk",
"00wwwwwyllltr0009800rk0ww0w0w0ww0000800000000094800wwr00wkrrr00wkrrlyltllw0wyzzzzzlw088809kkrtkr0wr",
"rwwlyyzyyyytrkw00808000rw00r000w0000000w0w0000000w00wr0w00w0w00r000ltlyttlyyyyyyzzlr8808rerrkww0w00",
"00wwyyzzyyyykr00808k00w000wwwrw0w0000wr0w0wr00500rww00w00000w0w00800ltylltyytyyyytwwwrwwklllr000rkr",
"800kwyzzyyyyyk00880000rww0000r0w0w0000w00ww0000000w0ww00008000w008000wttyytlltll000wyylyyyytk80w0r0",
"0888wwlyyyylyr08000www000www0ww0r0ww0wr0w0000848000w000088000w0w00080wlltllyyyyr000wzzzzyyyk9890w0w",
"k9009kwyyytytk98wwwwllykrltlttlrw0rw0www008888800000000088000wtltkwrkrrlylyytylrw0ltyzzzzyk088000r0",
"rk0998rkyylylrkrwlwrtytrrtlwlyylw0000w000088884888888888k9wwwrltyywyywkrttylllrrwwyllyyzyt88889ww0w",
"kykrkkrwtltllyrktyyytk000kwwyyytww000w00088888840800w0000w0r0w0kwyyywwwwktyrrltltlyttllwl088800w0wr",
"rytylrywytyyltltllltk888888wryylwy0000r0888888008000w00w000w0000kwywwywwtkylrrltltylyltwr880kr00wrk",
"krllywywlytkylylyykr0888888krrltyww000088880480408k0rkrrw0rwr008kkrwwyywkkytw0klytwwwwkr0890w0w0krk",
"r0tyyywytkrytyytltw8808888890ktlywww000888888004808000rkw0w0000wrrkwyywwyttkrkrrrlrww808080r0rr0r0r",
"88wlywwwwwktllyyyw088088000980lllywlw0800080080008800k0000000wr0k9rkwwkytkkr0r0ww0w000888ktlrrkrkrk",
"888rkwyyyytkrtylr08880kw0wk00wrt0w000008080850408084899k90wrw0ww00rrwwtwwrkrrkr0w00w000wrlltlyylrk9",
"88880wywtllktklr8888800w0ww000w00w080880800880080508888888kw00w0rk0krrrk0w0r00rwkrrkwrkrlzzlzzzzk90",
"88888kwwlrtrrr0k88800wrw0000rw0ww000000044008809000088888800008k0rrkrkwrw00w0wkrr0wr0ryyzzzzzzlt008",
"88888000w0krkk000800w00rw00kwkr00w000w088008000w0000088488889800k0rr0r0w0w0w000r0rkrwryyyzzzztrr889",
"000000000wr0rr99000w0ww088800rrkw0rww0088480800w0ww0080808000080r0krrkr0rwwwwwrkkktkrkylyyyyll88889",
"wyyylyw0krrwwr00w000ww0888800ww000ww0008840000w0ww0000wwtlrtlr050rkrk0w00lyzyyylyyyrrkytylltr0889r0",
"zzyzyzywrrkr0kr00w0w000888800rw00000084880800w0w00880wywyylytk080kr0rwr000yyyzzzyzlrryyyytylk080krk",
"zzzzzzlyrkwrw0rwwrw0w08088000w00000888480000r0ww080800wwtltlk0000wkr0wk000rwyzzyzzyttkyytlltwwwwtlt",
"zyyzyyyylr0kr0kr0kr0k8088wkr0r0w008888840000w0000800wrwwyylw880800r0wr00088wyzzzyzylyltlyytlrltlltl",
"wyyyyyyyww0wwwwwlwwwr800r0w000w000808809000r0w000990kr0rlw00888900w0w00r0888wltlyyylyyyyrtlylyylyrk",
"0wyylwyyww0wwwwwtww0w00w000wwr000800w0w00ww0w0kr0wkrkrwwr0888880000wrkrkw0k880lzyyytltlrrkryyyytr09",
"00yyyyyyw0rwylwwywwr0w00w00ww0000000w0w00w0wrkrrrkrkrrkrk88888800kr00rwrw9808rtlylltyytlrrlytlylk08"
};
